# xmcd CD database file
#
# Track frame offsets:
#	150
#	19700
#	39070
#	58920
#
# Disc length: 1044 seconds
#
# Revision: 0
# Processed by: cddbd v1.5.1PL0 Copyright (c) Steve Scherf et al.
# Submitted via: CDex 1.51
#
DISCID=27041204
DTITLE=夏川りみ - 涙そうそう　〜Special Edition〜
DYEAR=2004
DGENRE=JPop
TTITLE0=涙そうそう
TTITLE1=涙そうそう（ウチナーグチ・バージョン）
TTITLE2=涙そうそう（スペシャル・ライブ・ヴァージョン）　夏川りみ with 森山良子・BEGIN
TTITLE3=涙そうそう（インストゥルメンタル・ヴァージョン）
EXTD=YEAR: 2004
EXTT0=
EXTT1=
EXTT2=
EXTT3=
PLAYORDER=
